<svg id="svg" version="1.1" xmlns="http://www.w3.org/2000/svg" xmlns:xlink="http://www.w3.org/1999/xlink" width="400" height="400" viewBox="0, 0, 400,400"><g id="svgg"><path id="path0" d="M139.800 71.665 C 127.604 73.168,125.919 73.437,120.000 74.833 C 116.193 75.731,108.205 78.128,106.200 78.974 C 105.540 79.252,104.370 79.708,103.600 79.987 C 102.830 80.266,101.480 80.811,100.600 81.198 C 99.720 81.584,98.010 82.324,96.800 82.842 C 92.916 84.504,81.230 90.995,79.400 92.507 C 79.180 92.688,77.740 93.732,76.200 94.826 C 63.315 103.980,53.904 113.827,43.349 129.200 C 40.580 133.232,34.511 144.834,32.992 149.000 C 32.591 150.100,32.133 151.180,31.975 151.400 C 31.147 152.552,27.999 162.930,26.150 170.600 C 24.655 176.805,23.241 190.010,23.238 197.800 C 23.234 205.475,24.703 218.914,26.188 224.800 C 26.549 226.230,26.988 228.030,27.164 228.800 C 30.927 245.228,40.985 264.954,52.557 278.600 C 56.824 283.632,65.151 292.022,68.048 294.209 C 68.625 294.644,70.338 295.990,71.855 297.200 C 74.959 299.674,75.545 300.095,80.600 303.478 C 93.942 312.406,112.671 319.745,128.200 322.132 C 137.936 323.628,140.123 323.800,149.400 323.800 C 163.084 323.800,172.423 322.487,185.800 318.681 C 188.313 317.966,194.694 315.696,199.400 313.844 C 201.380 313.064,203.508 312.421,204.128 312.413 C 205.254 312.400,211.125 309.462,215.076 306.934 C 216.223 306.200,217.246 305.600,217.349 305.600 C 217.562 305.600,224.094 301.165,224.400 300.812 C 224.510 300.685,225.109 300.257,225.731 299.861 C 226.353 299.465,227.253 298.813,227.731 298.411 C 228.209 298.010,229.950 296.547,231.600 295.161 C 237.713 290.026,246.460 280.844,250.817 274.990 C 251.795 273.676,252.692 272.510,252.810 272.400 C 253.180 272.054,258.224 264.294,259.439 262.200 C 262.253 257.352,264.431 253.083,266.376 248.600 C 266.853 247.500,267.401 246.240,267.593 245.800 C 268.474 243.782,269.983 239.582,270.610 237.400 C 270.989 236.080,271.452 234.640,271.639 234.200 C 273.243 230.414,275.858 216.616,276.409 209.026 C 276.600 206.401,276.666 204.106,276.555 203.926 C 276.444 203.747,248.092 203.600,213.550 203.600 C 177.030 203.600,150.465 203.449,150.074 203.239 C 149.370 202.863,149.107 192.759,149.783 192.083 C 149.939 191.928,178.537 191.710,213.333 191.600 L 276.600 191.400 276.484 187.600 C 276.285 181.128,273.413 165.336,271.646 161.000 C 271.467 160.560,270.833 158.670,270.239 156.800 C 269.278 153.779,267.954 150.325,266.099 146.000 C 265.246 144.012,261.858 137.263,260.878 135.600 C 260.424 134.830,259.661 133.480,259.181 132.600 C 257.218 128.994,249.927 118.663,248.115 116.919 C 247.612 116.435,247.200 115.932,247.200 115.802 C 247.200 115.112,235.767 103.516,232.600 100.993 C 231.500 100.117,230.510 99.305,230.400 99.190 C 230.290 99.074,229.390 98.359,228.400 97.600 C 227.410 96.841,226.510 96.113,226.400 95.982 C 225.832 95.305,221.193 92.141,217.350 89.809 C 214.958 88.358,212.730 87.002,212.400 86.796 C 212.070 86.590,211.170 86.113,210.400 85.734 C 209.630 85.356,208.309 84.618,207.463 84.095 C 206.618 83.572,204.858 82.972,203.552 82.761 C 202.246 82.551,200.237 81.949,199.089 81.423 C 196.367 80.178,190.188 77.937,186.400 76.823 C 184.750 76.338,182.950 75.789,182.400 75.604 C 181.850 75.419,180.860 75.165,180.200 75.040 C 179.540 74.915,177.470 74.471,175.600 74.054 C 172.535 73.369,168.048 72.719,158.579 71.586 C 154.768 71.129,143.772 71.176,139.800 71.665 M185.306 103.998 C 193.552 107.874,193.029 119.666,184.482 122.578 C 172.811 126.555,165.963 109.536,177.015 104.023 C 179.181 102.942,183.036 102.931,185.306 103.998 M323.094 184.065 C 322.440 184.561,322.396 185.619,322.494 198.600 L 322.600 212.600 325.703 212.717 C 329.554 212.862,329.600 212.783,329.600 205.974 C 329.600 200.667,329.589 200.683,332.272 201.804 C 333.947 202.504,333.861 202.404,337.828 208.300 L 340.855 212.800 344.627 212.800 C 348.824 212.800,348.989 212.665,347.684 210.299 C 346.094 207.417,343.088 203.061,341.798 201.771 L 340.428 200.402 341.914 199.610 C 344.111 198.439,344.637 197.937,345.596 196.098 C 347.659 192.140,346.169 186.906,342.385 184.816 C 340.204 183.611,324.499 183.000,323.094 184.065 M43.200 185.167 C 43.970 185.366,45.468 185.648,46.529 185.794 C 52.663 186.633,53.785 195.399,48.216 198.970 C 47.232 199.600,46.026 199.761,41.089 199.920 C 33.565 200.161,34.000 199.750,34.000 206.629 C 34.000 211.848,33.499 213.598,32.643 211.367 C 32.327 210.545,32.336 186.880,32.652 185.700 C 32.918 184.706,40.033 184.347,43.200 185.167 M61.441 185.106 C 61.998 185.478,62.887 187.521,63.829 190.600 C 64.234 191.920,64.707 193.171,64.882 193.380 C 65.057 193.589,65.200 194.078,65.200 194.466 C 65.200 194.855,65.455 195.764,65.767 196.486 C 66.079 197.209,66.642 198.880,67.018 200.200 C 67.395 201.520,67.860 202.771,68.051 202.980 C 68.243 203.189,68.400 203.759,68.400 204.248 C 68.400 204.736,68.661 205.645,68.980 206.268 C 69.298 206.890,69.657 207.727,69.778 208.128 C 70.219 209.597,72.382 208.252,72.394 206.500 C 72.397 206.005,72.560 205.600,72.755 205.600 C 72.950 205.600,73.199 205.105,73.309 204.500 C 73.487 203.520,73.826 202.462,74.818 199.800 C 75.921 196.836,76.400 195.280,76.400 194.658 C 76.400 194.265,76.670 193.673,77.000 193.343 C 77.330 193.013,77.600 192.316,77.600 191.795 C 77.600 191.274,77.780 190.736,78.000 190.600 C 78.220 190.464,78.400 190.024,78.400 189.622 C 78.400 189.220,78.669 188.376,78.998 187.746 C 79.326 187.116,79.596 186.293,79.598 185.918 C 79.601 185.003,82.325 184.439,82.841 185.247 C 83.593 186.425,83.080 211.374,82.300 211.524 C 81.647 211.650,81.600 210.908,81.600 200.417 C 81.600 190.547,81.523 189.145,80.969 188.933 C 79.771 188.473,78.933 189.876,77.346 195.000 C 77.005 196.100,76.541 197.348,76.314 197.773 C 76.087 198.199,75.578 199.639,75.181 200.973 C 74.193 204.305,73.586 206.012,72.945 207.262 C 72.645 207.846,72.400 208.575,72.400 208.882 C 72.400 209.805,71.433 211.594,70.933 211.597 C 69.916 211.604,69.200 211.076,69.200 210.319 C 69.200 209.881,68.946 209.046,68.635 208.462 C 68.325 207.878,67.762 206.320,67.384 205.000 C 67.006 203.680,66.540 202.429,66.349 202.220 C 66.157 202.011,66.000 201.347,66.000 200.744 C 66.000 200.141,65.834 199.545,65.631 199.419 C 65.428 199.294,65.135 198.614,64.980 197.909 C 64.825 197.203,64.559 196.350,64.389 196.013 C 64.219 195.676,63.768 194.320,63.388 193.000 C 62.367 189.455,62.073 188.803,61.377 188.536 C 60.074 188.036,59.942 189.061,59.871 200.243 C 59.806 210.507,59.745 211.399,59.100 211.524 C 58.380 211.662,57.956 185.777,58.667 185.067 C 59.023 184.711,60.888 184.737,61.441 185.106 M104.000 185.200 C 104.000 185.420,104.179 185.600,104.397 185.600 C 105.157 185.600,108.000 186.991,108.000 187.363 C 108.000 187.569,108.235 188.021,108.523 188.369 C 109.832 189.951,110.051 191.200,109.018 191.200 C 108.366 191.200,107.966 190.909,107.781 190.300 C 105.855 183.950,93.400 184.878,93.400 191.371 C 93.400 194.787,95.555 196.187,102.200 197.084 C 103.080 197.203,104.155 197.547,104.589 197.850 C 105.023 198.152,105.666 198.400,106.017 198.400 C 106.982 198.400,109.875 201.047,110.162 202.192 C 110.301 202.747,110.592 203.200,110.808 203.200 C 112.462 203.200,109.875 208.402,107.109 210.637 C 105.029 212.319,96.798 212.250,94.769 210.534 C 94.421 210.240,94.016 210.000,93.869 210.000 C 93.328 210.000,91.915 208.294,91.365 206.978 C 90.588 205.118,90.653 204.400,91.600 204.400 C 92.153 204.400,92.400 204.667,92.400 205.262 C 92.400 206.327,94.231 208.800,95.020 208.800 C 95.339 208.800,95.600 208.938,95.600 209.106 C 95.600 210.998,102.454 211.120,106.293 209.296 C 110.892 207.111,108.967 199.600,103.807 199.600 C 103.279 199.600,102.749 199.441,102.629 199.246 C 102.508 199.052,101.602 198.771,100.614 198.623 C 99.627 198.475,98.714 198.184,98.586 197.977 C 98.458 197.770,97.910 197.600,97.368 197.600 C 96.264 197.600,93.814 196.166,92.600 194.810 C 90.972 192.991,91.969 186.861,93.900 186.813 C 94.175 186.806,94.400 186.634,94.400 186.432 C 94.400 186.229,94.938 185.945,95.595 185.801 C 96.253 185.657,96.894 185.372,97.019 185.169 C 97.332 184.662,104.000 184.692,104.000 185.200 M118.400 186.000 C 118.400 186.800,118.200 187.200,117.800 187.200 C 117.400 187.200,117.200 186.800,117.200 186.000 C 117.200 185.200,117.400 184.800,117.800 184.800 C 118.200 184.800,118.400 185.200,118.400 186.000 M34.888 187.194 C 33.998 187.574,33.979 187.705,34.088 192.687 L 34.200 197.791 35.349 198.341 C 36.877 199.072,46.134 198.609,46.984 197.759 C 47.291 197.452,47.670 197.200,47.825 197.200 C 50.712 197.200,50.755 189.990,47.881 187.849 C 46.623 186.912,36.720 186.413,34.888 187.194 M338.300 190.416 C 339.637 191.272,339.553 193.665,338.146 194.771 C 336.882 195.765,329.631 196.043,329.565 195.100 C 329.397 192.739,329.377 190.138,329.524 189.856 C 329.817 189.291,337.287 189.768,338.300 190.416 M118.400 202.587 C 118.400 210.768,118.323 211.945,117.800 211.745 C 117.291 211.549,117.200 210.128,117.200 202.357 C 117.200 194.484,117.284 193.200,117.800 193.200 C 118.316 193.200,118.400 194.510,118.400 202.587 M182.300 195.500 C 199.295 195.558,227.105 195.558,244.100 195.500 C 261.095 195.442,247.190 195.395,213.200 195.395 C 179.210 195.395,165.305 195.442,182.300 195.500 " stroke="none" fill="#436e73" fill-rule="evenodd"></path><path id="path1" d="M0.000 200.000 L 0.000 400.000 200.000 400.000 L 400.000 400.000 400.000 200.000 L 400.000 0.000 200.000 0.000 L 0.000 0.000 0.000 200.000 M161.600 71.218 C 176.386 73.040,186.001 75.412,197.533 80.080 C 200.246 81.178,202.766 81.982,203.133 81.867 C 203.500 81.752,205.600 80.920,207.800 80.017 C 237.207 67.952,271.522 67.756,301.400 79.483 C 353.973 100.118,386.446 152.481,381.597 208.800 C 378.100 249.415,355.269 285.633,319.802 306.832 C 315.402 309.462,306.365 314.021,304.400 314.602 C 303.850 314.765,303.220 315.032,303.000 315.196 C 302.780 315.360,301.520 315.867,300.200 316.324 C 298.880 316.781,296.540 317.600,295.000 318.145 C 275.366 325.090,246.977 326.355,226.400 321.202 C 217.969 319.091,213.302 317.597,207.048 315.008 C 202.451 313.106,202.535 313.096,194.600 316.403 C 191.020 317.894,186.900 319.170,179.600 321.049 C 131.153 333.515,75.001 312.862,46.788 272.200 C 46.024 271.100,45.298 270.110,45.172 270.000 C 44.199 269.145,37.927 258.374,35.351 253.134 C 24.040 230.129,19.595 198.795,24.409 176.000 C 26.796 164.695,27.438 162.248,29.759 155.597 C 39.425 127.896,59.068 103.823,84.288 88.770 C 93.401 83.331,103.232 78.946,112.400 76.231 C 118.385 74.459,125.270 72.898,130.000 72.241 C 132.530 71.890,135.680 71.445,137.000 71.253 C 140.457 70.749,157.595 70.724,161.600 71.218 M178.764 104.221 C 173.214 105.931,170.503 112.038,173.036 117.122 C 177.453 125.986,190.411 122.956,190.396 113.063 C 190.387 106.865,184.560 102.436,178.764 104.221 M150.400 193.200 C 150.400 193.465,171.533 193.600,213.000 193.600 C 254.467 193.600,275.600 193.465,275.600 193.200 C 275.600 192.935,254.467 192.800,213.000 192.800 C 171.533 192.800,150.400 192.935,150.400 193.200 M150.400 202.400 C 150.400 202.665,171.533 202.800,213.000 202.800 C 254.467 202.800,275.600 202.665,275.600 202.400 C 275.600 202.135,254.467 202.000,213.000 202.000 C 171.533 202.000,150.400 202.135,150.400 202.400 " stroke="none" fill="#fbfbfb" fill-rule="evenodd"></path><path id="path2" d="M137.000 71.253 C 135.680 71.445,132.530 71.890,130.000 72.241 C 124.193 73.048,113.455 75.660,108.000 77.592 C 76.272 88.834,50.211 111.865,35.798 141.400 C 32.351 148.464,31.776 149.817,29.759 155.597 C 27.438 162.248,26.796 164.695,24.409 176.000 C 19.595 198.795,24.040 230.129,35.351 253.134 C 37.927 258.374,44.199 269.145,45.172 270.000 C 45.298 270.110,46.024 271.100,46.788 272.200 C 63.867 296.815,93.480 315.834,124.600 322.175 C 140.262 325.366,157.926 325.373,174.400 322.194 C 180.989 320.922,189.849 318.382,194.600 316.403 C 202.535 313.096,202.451 313.106,207.048 315.008 C 213.302 317.597,217.969 319.091,226.400 321.202 C 246.977 326.355,275.366 325.090,295.000 318.145 C 296.540 317.600,298.880 316.781,300.200 316.324 C 301.520 315.867,302.780 315.360,303.000 315.196 C 303.220 315.032,303.850 314.765,304.400 314.602 C 306.365 314.021,315.402 309.462,319.802 306.832 C 385.308 267.679,402.105 181.470,356.078 120.651 C 321.933 75.531,260.061 58.576,207.800 80.017 C 205.600 80.920,203.500 81.752,203.133 81.867 C 202.766 81.982,200.246 81.178,197.533 80.080 C 186.001 75.412,176.386 73.040,161.600 71.218 C 157.595 70.724,140.457 70.749,137.000 71.253 M158.579 71.586 C 168.048 72.719,172.535 73.369,175.600 74.054 C 177.470 74.471,179.540 74.915,180.200 75.040 C 180.860 75.165,181.850 75.419,182.400 75.604 C 182.950 75.789,184.750 76.338,186.400 76.823 C 190.188 77.937,196.367 80.178,199.089 81.423 C 200.237 81.949,202.246 82.551,203.552 82.761 C 204.858 82.972,206.618 83.572,207.463 84.095 C 208.309 84.618,209.630 85.356,210.400 85.734 C 211.170 86.113,212.070 86.590,212.400 86.796 C 212.730 87.002,214.958 88.358,217.350 89.809 C 221.193 92.141,225.832 95.305,226.400 95.982 C 226.510 96.113,227.410 96.841,228.400 97.600 C 229.390 98.359,230.290 99.074,230.400 99.190 C 230.510 99.305,231.500 100.117,232.600 100.993 C 235.767 103.516,247.200 115.112,247.200 115.802 C 247.200 115.932,247.612 116.435,248.115 116.919 C 249.927 118.663,257.218 128.994,259.181 132.600 C 259.661 133.480,260.424 134.830,260.878 135.600 C 261.858 137.263,265.246 144.012,266.099 146.000 C 267.954 150.325,269.278 153.779,270.239 156.800 C 270.833 158.670,271.467 160.560,271.646 161.000 C 273.413 165.336,276.285 181.128,276.484 187.600 L 276.600 191.400 213.333 191.600 C 178.537 191.710,149.939 191.928,149.783 192.083 C 149.107 192.759,149.370 202.863,150.074 203.239 C 150.465 203.449,177.030 203.600,213.550 203.600 C 248.092 203.600,276.444 203.747,276.555 203.926 C 277.363 205.234,275.401 219.488,273.159 228.600 C 272.509 231.240,271.825 233.760,271.639 234.200 C 271.452 234.640,270.989 236.080,270.610 237.400 C 269.983 239.582,268.474 243.782,267.593 245.800 C 267.401 246.240,266.853 247.500,266.376 248.600 C 264.431 253.083,262.253 257.352,259.439 262.200 C 258.224 264.294,253.180 272.054,252.810 272.400 C 252.692 272.510,251.795 273.676,250.817 274.990 C 246.460 280.844,237.713 290.026,231.600 295.161 C 229.950 296.547,228.209 298.010,227.731 298.411 C 227.253 298.813,226.353 299.465,225.731 299.861 C 225.109 300.257,224.510 300.685,224.400 300.812 C 224.094 301.165,217.562 305.600,217.349 305.600 C 217.246 305.600,216.223 306.200,215.076 306.934 C 211.125 309.462,205.254 312.400,204.128 312.413 C 203.508 312.421,201.380 313.064,199.400 313.844 C 185.781 319.205,177.149 321.449,163.200 323.256 C 157.711 323.967,141.080 323.978,136.000 323.273 C 120.878 321.177,112.858 319.115,101.400 314.379 C 93.432 311.085,86.682 307.547,80.600 303.478 C 75.545 300.095,74.959 299.674,71.855 297.200 C 70.338 295.990,68.625 294.644,68.048 294.209 C 65.151 292.022,56.824 283.632,52.557 278.600 C 40.985 264.954,30.927 245.228,27.164 228.800 C 26.988 228.030,26.549 226.230,26.188 224.800 C 22.498 210.177,22.482 185.826,26.150 170.600 C 27.999 162.930,31.147 152.552,31.975 151.400 C 32.133 151.180,32.591 150.100,32.992 149.000 C 34.511 144.834,40.580 133.232,43.349 129.200 C 53.904 113.827,63.315 103.980,76.200 94.826 C 77.740 93.732,79.180 92.688,79.400 92.507 C 81.230 90.995,92.916 84.504,96.800 82.842 C 98.010 82.324,99.720 81.584,100.600 81.198 C 101.480 80.811,102.830 80.266,103.600 79.987 C 104.370 79.708,105.540 79.252,106.200 78.974 C 108.205 78.128,116.193 75.731,120.000 74.833 C 125.919 73.437,127.604 73.168,139.800 71.665 C 143.772 71.176,154.768 71.129,158.579 71.586 M177.015 104.023 C 165.963 109.536,172.811 126.555,184.482 122.578 C 191.557 120.168,193.533 110.851,188.049 105.765 C 185.270 103.188,180.270 102.399,177.015 104.023 M183.123 104.066 C 193.779 106.714,192.208 122.400,181.287 122.400 C 170.742 122.400,168.652 107.336,178.764 104.221 C 181.081 103.508,180.900 103.514,183.123 104.066 M342.385 184.816 C 346.169 186.906,347.659 192.140,345.596 196.098 C 344.637 197.937,344.111 198.439,341.914 199.610 L 340.428 200.402 341.798 201.771 C 343.088 203.061,346.094 207.417,347.684 210.299 C 348.989 212.665,348.824 212.800,344.627 212.800 L 340.855 212.800 337.828 208.300 C 333.861 202.404,333.947 202.504,332.272 201.804 C 329.589 200.683,329.600 200.667,329.600 205.974 C 329.600 212.783,329.554 212.862,325.703 212.717 L 322.600 212.600 322.494 198.600 C 322.396 185.619,322.440 184.561,323.094 184.065 C 324.499 183.000,340.204 183.611,342.385 184.816 M32.652 185.700 C 32.336 186.880,32.327 210.545,32.643 211.367 C 33.499 213.598,34.000 211.848,34.000 206.629 C 34.000 199.750,33.565 200.161,41.089 199.920 C 46.026 199.761,47.232 199.600,48.216 198.970 C 53.785 195.399,52.663 186.633,46.529 185.794 C 45.468 185.648,43.970 185.366,43.200 185.167 C 40.033 184.347,32.918 184.706,32.652 185.700 M58.667 185.067 C 57.956 185.777,58.380 211.662,59.100 211.524 C 59.745 211.399,59.806 210.507,59.871 200.243 C 59.942 189.061,60.074 188.036,61.377 188.536 C 62.073 188.803,62.367 189.455,63.388 193.000 C 63.768 194.320,64.219 195.676,64.389 196.013 C 64.559 196.350,64.825 197.203,64.980 197.909 C 65.135 198.614,65.428 199.294,65.631 199.419 C 65.834 199.545,66.000 200.141,66.000 200.744 C 66.000 201.347,66.157 202.011,66.349 202.220 C 66.540 202.429,67.006 203.680,67.384 205.000 C 67.762 206.320,68.325 207.878,68.635 208.462 C 68.946 209.046,69.200 209.881,69.200 210.319 C 69.200 211.076,69.916 211.604,70.933 211.597 C 71.433 211.594,72.400 209.805,72.400 208.882 C 72.400 208.575,72.645 207.846,72.945 207.262 C 73.586 206.012,74.193 204.305,75.181 200.973 C 75.578 199.639,76.087 198.199,76.314 197.773 C 76.541 197.348,77.005 196.100,77.346 195.000 C 78.933 189.876,79.771 188.473,80.969 188.933 C 81.523 189.145,81.600 190.547,81.600 200.417 C 81.600 210.908,81.647 211.650,82.300 211.524 C 83.080 211.374,83.593 186.425,82.841 185.247 C 82.325 184.439,79.601 185.003,79.598 185.918 C 79.596 186.293,79.326 187.116,78.998 187.746 C 78.669 188.376,78.400 189.220,78.400 189.622 C 78.400 190.024,78.220 190.464,78.000 190.600 C 77.780 190.736,77.600 191.274,77.600 191.795 C 77.600 192.316,77.330 193.013,77.000 193.343 C 76.670 193.673,76.400 194.265,76.400 194.658 C 76.400 195.280,75.921 196.836,74.818 199.800 C 73.826 202.462,73.487 203.520,73.309 204.500 C 73.199 205.105,72.950 205.600,72.755 205.600 C 72.560 205.600,72.397 206.005,72.394 206.500 C 72.382 208.252,70.219 209.597,69.778 208.128 C 69.657 207.727,69.298 206.890,68.980 206.268 C 68.661 205.645,68.400 204.736,68.400 204.248 C 68.400 203.759,68.243 203.189,68.051 202.980 C 67.860 202.771,67.395 201.520,67.018 200.200 C 66.642 198.880,66.079 197.209,65.767 196.486 C 65.455 195.764,65.200 194.855,65.200 194.466 C 65.200 194.078,65.057 193.589,64.882 193.380 C 64.707 193.171,64.234 191.920,63.829 190.600 C 62.887 187.521,61.998 185.478,61.441 185.106 C 60.888 184.737,59.023 184.711,58.667 185.067 M97.019 185.169 C 96.894 185.372,96.253 185.657,95.595 185.801 C 94.938 185.945,94.400 186.229,94.400 186.432 C 94.400 186.634,94.175 186.806,93.900 186.813 C 91.969 186.861,90.972 192.991,92.600 194.810 C 93.814 196.166,96.264 197.600,97.368 197.600 C 97.910 197.600,98.458 197.770,98.586 197.977 C 98.714 198.184,99.627 198.475,100.614 198.623 C 101.602 198.771,102.508 199.052,102.629 199.246 C 102.749 199.441,103.279 199.600,103.807 199.600 C 108.967 199.600,110.892 207.111,106.293 209.296 C 102.454 211.120,95.600 210.998,95.600 209.106 C 95.600 208.938,95.339 208.800,95.020 208.800 C 94.231 208.800,92.400 206.327,92.400 205.262 C 92.400 204.667,92.153 204.400,91.600 204.400 C 90.653 204.400,90.588 205.118,91.365 206.978 C 91.915 208.294,93.328 210.000,93.869 210.000 C 94.016 210.000,94.421 210.240,94.769 210.534 C 96.798 212.250,105.029 212.319,107.109 210.637 C 109.875 208.402,112.462 203.200,110.808 203.200 C 110.592 203.200,110.301 202.747,110.162 202.192 C 109.875 201.047,106.982 198.400,106.017 198.400 C 105.666 198.400,105.023 198.152,104.589 197.850 C 104.155 197.547,103.080 197.203,102.200 197.084 C 95.555 196.187,93.400 194.787,93.400 191.371 C 93.400 184.878,105.855 183.950,107.781 190.300 C 107.966 190.909,108.366 191.200,109.018 191.200 C 110.051 191.200,109.832 189.951,108.523 188.369 C 108.235 188.021,108.000 187.569,108.000 187.363 C 108.000 186.991,105.157 185.600,104.397 185.600 C 104.179 185.600,104.000 185.420,104.000 185.200 C 104.000 184.692,97.332 184.662,97.019 185.169 M117.200 186.000 C 117.200 186.800,117.400 187.200,117.800 187.200 C 118.200 187.200,118.400 186.800,118.400 186.000 C 118.400 185.200,118.200 184.800,117.800 184.800 C 117.400 184.800,117.200 185.200,117.200 186.000 M47.881 187.849 C 50.755 189.990,50.712 197.200,47.825 197.200 C 47.670 197.200,47.291 197.452,46.984 197.759 C 46.134 198.609,36.877 199.072,35.349 198.341 L 34.200 197.791 34.088 192.687 C 33.951 186.457,33.571 186.763,41.281 186.911 C 46.113 187.003,46.895 187.114,47.881 187.849 M329.524 189.856 C 329.377 190.138,329.397 192.739,329.565 195.100 C 329.631 196.043,336.882 195.765,338.146 194.771 C 339.553 193.665,339.637 191.272,338.300 190.416 C 337.287 189.768,329.817 189.291,329.524 189.856 M275.600 193.200 C 275.600 193.465,254.467 193.600,213.000 193.600 C 171.533 193.600,150.400 193.465,150.400 193.200 C 150.400 192.935,171.533 192.800,213.000 192.800 C 254.467 192.800,275.600 192.935,275.600 193.200 M117.200 202.357 C 117.200 210.128,117.291 211.549,117.800 211.745 C 118.323 211.945,118.400 210.768,118.400 202.587 C 118.400 194.510,118.316 193.200,117.800 193.200 C 117.284 193.200,117.200 194.484,117.200 202.357 M244.100 195.500 C 227.105 195.558,199.295 195.558,182.300 195.500 C 165.305 195.442,179.210 195.395,213.200 195.395 C 247.190 195.395,261.095 195.442,244.100 195.500 M275.600 202.400 C 275.600 202.665,254.467 202.800,213.000 202.800 C 171.533 202.800,150.400 202.665,150.400 202.400 C 150.400 202.135,171.533 202.000,213.000 202.000 C 254.467 202.000,275.600 202.135,275.600 202.400 " stroke="none" fill="#7db183" fill-rule="evenodd"></path></g></svg>